<svg width="18" height="19" viewBox="0 0 18 19" fill="none" xmlns="http://www.w3.org/2000/svg">
<path d="M17 0.954102H1C0.734784 0.954102 0.48043 1.05946 0.292893 1.24699C0.105357 1.43453 0 1.68889 0 1.9541V17.9541C0 18.2193 0.105357 18.4737 0.292893 18.6612C0.48043 18.8487 0.734784 18.9541 1 18.9541H17C17.2652 18.9541 17.5196 18.8487 17.7071 18.6612C17.8946 18.4737 18 18.2193 18 17.9541V1.9541C18 1.68889 17.8946 1.43453 17.7071 1.24699C17.5196 1.05946 17.2652 0.954102 17 0.954102ZM5.339 16.2911H2.667V7.7011H5.339V16.2911ZM4.003 6.5281C3.59244 6.5281 3.1987 6.36501 2.9084 6.0747C2.61809 5.7844 2.455 5.39066 2.455 4.9801C2.455 4.56955 2.61809 4.17581 2.9084 3.8855C3.1987 3.59519 3.59244 3.4321 4.003 3.4321C4.41356 3.4321 4.80729 3.59519 5.0976 3.8855C5.38791 4.17581 5.551 4.56955 5.551 4.9801C5.551 5.39066 5.38791 5.7844 5.0976 6.0747C4.80729 6.36501 4.41356 6.5281 4.003 6.5281ZM15.338 16.2911H12.669V12.1141C12.669 11.1181 12.651 9.8371 11.281 9.8371C9.891 9.8371 9.68 10.9231 9.68 12.0441V16.2921H7.013V7.7021H9.573V8.8761H9.61C9.965 8.2011 10.837 7.4891 12.134 7.4891C14.838 7.4891 15.337 9.2671 15.337 11.5811V16.2911H15.338Z" fill="#C6CBCD"/>
</svg>
