<svg width="20" height="17" viewBox="0 0 20 17" fill="none" xmlns="http://www.w3.org/2000/svg">
<path d="M17.633 4.9321C17.646 5.1071 17.646 5.2811 17.646 5.4551C17.646 10.7801 13.593 16.9161 6.186 16.9161C3.904 16.9161 1.784 16.2551 0 15.1071C0.324 15.1441 0.636 15.1571 0.973 15.1571C2.78599 15.1615 4.54765 14.5552 5.974 13.4361C5.13342 13.4209 4.31858 13.1436 3.64324 12.6428C2.9679 12.1421 2.46578 11.443 2.207 10.6431C2.456 10.6801 2.706 10.7051 2.968 10.7051C3.329 10.7051 3.692 10.6551 4.029 10.5681C3.11676 10.3839 2.29647 9.88945 1.70762 9.16879C1.11876 8.44812 0.797693 7.54575 0.799 6.6151V6.5651C1.336 6.8641 1.959 7.0511 2.619 7.0761C2.06609 6.70869 1.61272 6.21012 1.29934 5.62489C0.98596 5.03966 0.822313 4.38596 0.823 3.7221C0.823 2.9741 1.022 2.2881 1.371 1.6901C2.38314 2.93512 3.6455 3.95366 5.07634 4.67976C6.50717 5.40586 8.07456 5.82332 9.677 5.9051C9.615 5.6051 9.577 5.2941 9.577 4.9821C9.57674 4.45306 9.68075 3.92916 9.88308 3.44034C10.0854 2.95152 10.3821 2.50738 10.7562 2.13329C11.1303 1.7592 11.5744 1.46251 12.0632 1.26018C12.5521 1.05785 13.076 0.953839 13.605 0.954102C14.765 0.954102 15.812 1.4401 16.548 2.2261C17.4498 2.05172 18.3145 1.72252 19.104 1.2531C18.8034 2.18392 18.1738 2.97321 17.333 3.4731C18.1328 3.38188 18.9144 3.17155 19.652 2.8491C19.1011 3.6522 18.4185 4.35645 17.633 4.9321Z" fill="#C6CBCD"/>
</svg>
