<svg width="185" height="27" viewBox="0 0 185 27" fill="none" xmlns="http://www.w3.org/2000/svg">
<path d="M16.5136 21.0865H8.31939L6.88839 25.7644H0.5L9.59706 0.723712H15.2188L24.384 25.7644H17.9616L16.5136 21.0865ZM9.75038 16.4257H15.0826L12.408 7.74061L9.75038 16.4257Z" fill="#656980"/>
<path d="M45.9001 17.2856C45.8206 19.0284 45.355 20.5705 44.5032 21.912C43.6514 23.242 42.4532 24.2739 40.9087 25.0077C39.3755 25.7415 37.6208 26.1084 35.6446 26.1084C32.3851 26.1084 29.8184 25.0363 27.9445 22.8923C26.0706 20.7482 25.1336 17.7213 25.1336 13.8116V12.5733C25.1336 10.1197 25.5538 7.97565 26.3943 6.14117C27.246 4.29522 28.4669 2.8735 30.0569 1.876C31.6469 0.867031 33.4868 0.362549 35.5765 0.362549C38.5861 0.362549 41.0052 1.16513 42.8337 2.77031C44.6622 4.36401 45.7014 6.56539 45.9512 9.37444H39.9887C39.9433 7.84953 39.5629 6.75457 38.8474 6.08957C38.1319 5.42457 37.0416 5.09207 35.5765 5.09207C34.0887 5.09207 32.9984 5.65388 32.3056 6.7775C31.6129 7.90112 31.2494 9.69548 31.2154 12.1606V13.932C31.2154 16.6034 31.5447 18.5125 32.2034 19.659C32.8735 20.8056 34.0206 21.3788 35.6446 21.3788C37.0189 21.3788 38.0694 21.0521 38.7962 20.3985C39.5231 19.745 39.9092 18.7074 39.9547 17.2856H45.9001Z" fill="#656980"/>
<path d="M67.6888 5.38444H60.2442V25.7644H54.2647V5.38444H46.9563V0.723712H67.6888V5.38444Z" fill="#656980"/>
<path d="M76.5985 25.7644H70.636V0.723712H76.5985V25.7644Z" fill="#656980"/>
<path d="M90.3803 18.9539L95.3207 0.723712H101.999L93.6512 25.7644H87.1095L78.8301 0.723712H85.457L90.3803 18.9539Z" fill="#656980"/>
<path d="M119.205 15.1531H109.801V21.1209H120.908V25.7644H103.822V0.723712H120.942V5.38444H109.801V10.6643H119.205V15.1531Z" fill="#656980"/>
<path d="M123.954 25.7472V0.706514H130.478C133.147 0.706514 135.163 1.25686 136.526 2.35755C137.9 3.44677 138.587 5.03474 138.587 7.12147C138.587 8.63491 138.207 9.89039 137.446 10.8879C136.685 11.8854 135.612 12.5217 134.226 12.7969C135.794 13.0033 137.1 13.6912 138.144 14.8607C139.189 16.0187 139.712 17.3487 139.712 18.8507C139.712 20.9833 139.025 22.6687 137.65 23.907C136.288 25.1338 134.385 25.7472 131.943 25.7472H123.954ZM124.874 13.3816V24.8185H132.046C134.147 24.8185 135.794 24.2968 136.986 23.2534C138.19 22.1986 138.792 20.7425 138.792 18.8851C138.792 17.3028 138.213 16.0015 137.054 14.9811C135.896 13.9492 134.346 13.416 132.403 13.3816H124.874ZM124.874 12.4529H130.819C133.079 12.4529 134.783 12.0172 135.93 11.1459C137.077 10.263 137.65 8.89862 137.65 7.05267C137.65 3.49837 135.328 1.69255 130.683 1.63522H124.874V12.4529Z" fill="white"/>
<path d="M162.574 15.1015C162.574 17.2684 162.188 19.1889 161.415 20.8629C160.654 22.5254 159.564 23.8152 158.144 24.7325C156.725 25.6383 155.089 26.0912 153.238 26.0912C150.444 26.0912 148.184 25.0879 146.458 23.0815C144.732 21.075 143.868 18.3691 143.868 14.9639V11.3522C143.868 9.19672 144.249 7.28198 145.01 5.60802C145.782 3.93405 146.878 2.64419 148.298 1.73841C149.729 0.821169 151.364 0.362549 153.204 0.362549C155.055 0.362549 156.691 0.821169 158.11 1.73841C159.541 2.64419 160.643 3.93979 161.415 5.62522C162.188 7.29918 162.574 9.20819 162.574 11.3522V15.1015ZM161.654 11.3178C161.654 8.29095 160.893 5.86599 159.371 4.04298C157.849 2.2085 155.793 1.29126 153.204 1.29126C150.649 1.29126 148.61 2.20276 147.088 4.02578C145.566 5.83733 144.805 8.30815 144.805 11.4382V15.1015C144.805 17.0965 145.146 18.8621 145.828 20.3985C146.52 21.9234 147.503 23.0987 148.775 23.9242C150.047 24.7497 151.535 25.1624 153.238 25.1624C155.828 25.1624 157.877 24.2509 159.388 22.4279C160.898 20.6049 161.654 18.1169 161.654 14.9639V11.3178Z" fill="white"/>
<path d="M174.873 12.2465L182.88 0.706514H184.039L175.453 12.9689L184.362 25.7472H183.221L174.873 13.6912L166.492 25.7472H165.385L174.294 12.9689L165.708 0.706514H166.867L174.873 12.2465Z" fill="white"/>
</svg>
